<?xml version="1.0"?>
<svg xmlns="http://www.w3.org/2000/svg" xmlns:xlink="http://www.w3.org/1999/xlink" xmlns:svgjs="http://svgjs.com/svgjs" version="1.1" width="512" height="512" x="0" y="0" viewBox="0 0 512 512" style="enable-background:new 0 0 512 512" xml:space="preserve" class=""><g><g xmlns="http://www.w3.org/2000/svg"><circle cx="256" cy="256" r="85" fill="#ffffff" data-original="#000000" style="" class=""/><path d="m143.655 231.412c11.292-51.635 57.371-90.412 112.345-90.412h228.861c-12.143-24.107-28.2-46.378-47.841-66.02-48.353-48.351-112.64-74.98-181.02-74.98s-132.667 26.629-181.02 74.98c-4.65 4.65-9.094 9.45-13.337 14.384z" fill="#ffffff" data-original="#000000" style="" class=""/><path d="m290.88 365.587c-11.006 3.511-22.725 5.413-34.88 5.413-42.718 0-80.068-23.414-99.898-58.082-.142-.219-.283-.437-.415-.665l-113.676-196.893c-27.33 41.4-42.011 89.89-42.011 140.64 0 68.38 26.629 132.667 74.98 181.02 37.043 37.042 83.443 61.316 133.866 70.654z" fill="#ffffff" data-original="#000000" style="" class=""/><path d="m333.379 171c23.101 21.048 37.621 51.36 37.621 85 0 21.158-5.75 40.995-15.76 58.044-.102.196-.19.395-.301.588l-113.7 196.936c4.897.276 9.817.432 14.761.432 68.38 0 132.667-26.629 181.02-74.98 48.351-48.353 74.98-112.64 74.98-181.02 0-29.406-4.938-58.05-14.396-85z" fill="#ffffff" data-original="#000000" style="" class=""/></g></g></svg>
